<?xml version="1.0" encoding="utf-8"?>
<!-- Generator: Adobe Illustrator 23.0.3, SVG Export Plug-In . SVG Version: 6.00 Build 0)  -->
<svg version="1.1" id="Ebene_1" xmlns="http://www.w3.org/2000/svg" xmlns:xlink="http://www.w3.org/1999/xlink" x="0px" y="0px"
	 viewBox="0 0 1000 533" style="enable-background:new 0 0 1000 533;" xml:space="preserve">
<style type="text/css">
	.st0{clip-path:url(#SVGID_2_);}
	.st1{clip-path:url(#SVGID_4_);}
	.st2{fill:#DCD270;stroke:#DCD270;stroke-width:1.51;}
	.st3{fill:#C6BA6F;stroke:#C6BA6F;stroke-width:1.51;}
	.st4{fill:#ECD269;stroke:#ECD269;stroke-width:1.51;}
	.st5{fill:#C19B64;stroke:#C19B64;stroke-width:1.51;}
	.st6{fill:#D9A55A;stroke:#D9A55A;stroke-width:1.51;}
	.st7{fill:#AFB876;stroke:#AFB876;stroke-width:1.51;}
	.st8{fill:#EFBF5D;stroke:#EFBF5D;stroke-width:1.51;}
	.st9{fill:#EDAC55;stroke:#EDAC55;stroke-width:1.51;}
	.st10{fill:#CCD576;stroke:#CCD576;stroke-width:1.51;}
	.st11{fill:#F3D064;stroke:#F3D064;stroke-width:1.51;}
	.st12{fill:#A6BA78;stroke:#A6BA78;stroke-width:1.51;}
	.st13{fill:#EBA551;stroke:#EBA551;stroke-width:1.51;}
	.st14{fill:#EDCD65;stroke:#EDCD65;stroke-width:1.51;}
	.st15{fill:#9DB579;stroke:#9DB579;stroke-width:1.51;}
	.st16{fill:#CDD575;stroke:#CDD575;stroke-width:1.51;}
	.st17{fill:#B07A5D;stroke:#B07A5D;stroke-width:1.51;}
	.st18{fill:#B4B676;stroke:#B4B676;stroke-width:1.51;}
	.st19{fill:#B96F51;stroke:#B96F51;stroke-width:1.51;}
	.st20{fill:#D28C50;stroke:#D28C50;stroke-width:1.51;}
	.st21{fill:#BBC877;stroke:#BBC877;stroke-width:1.51;}
	.st22{fill:#CDA963;stroke:#CDA963;stroke-width:1.51;}
	.st23{fill:#E5D76F;stroke:#E5D76F;stroke-width:1.51;}
	.st24{fill:#86AA7B;stroke:#86AA7B;stroke-width:1.51;}
	.st25{fill:#B4A770;stroke:#B4A770;stroke-width:1.51;}
	.st26{fill:#B08261;stroke:#B08261;stroke-width:1.51;}
	.st27{fill:#E58A46;stroke:#E58A46;stroke-width:1.51;}
	.st28{fill:#D98A4C;stroke:#D98A4C;stroke-width:1.51;}
	.st29{fill:#E1763E;stroke:#E1763E;stroke-width:1.51;}
	.st30{fill:#E79048;stroke:#E79048;stroke-width:1.51;}
	.st31{fill:#E58744;stroke:#E58744;stroke-width:1.51;}
	.st32{fill:#A0524E;stroke:#A0524E;stroke-width:1.51;}
	.st33{fill:#97B279;stroke:#97B279;stroke-width:1.51;}
	.st34{fill:#81A87B;stroke:#81A87B;stroke-width:1.51;}
	.st35{fill:#78A383;stroke:#78A383;stroke-width:1.51;}
	.st36{fill:#6E9D8A;stroke:#6E9D8A;stroke-width:1.51;}
	.st37{fill:#AE745B;stroke:#AE745B;stroke-width:1.51;}
	.st38{fill:#629292;stroke:#629292;stroke-width:1.51;}
	.st39{fill:#C9C271;stroke:#C9C271;stroke-width:1.51;}
	.st40{fill:#E29C51;stroke:#E29C51;stroke-width:1.51;}
	.st41{fill:#D4854D;stroke:#D4854D;stroke-width:1.51;}
	.st42{fill:#B15C4D;stroke:#B15C4D;stroke-width:1.51;}
	.st43{fill:#DB5E33;stroke:#DB5E33;stroke-width:1.51;}
	.st44{fill:#E7974C;stroke:#E7974C;stroke-width:1.51;}
	.st45{fill:#DF6F3A;stroke:#DF6F3A;stroke-width:1.51;}
	.st46{fill:#B9AF71;stroke:#B9AF71;stroke-width:1.51;}
	.st47{fill:#D2824C;stroke:#D2824C;stroke-width:1.51;}
	.st48{fill:#DE6E3B;stroke:#DE6E3B;stroke-width:1.51;}
	.st49{fill:#C78152;stroke:#C78152;stroke-width:1.51;}
	.st50{fill:#D5482B;stroke:#D5482B;stroke-width:1.51;}
	.st51{fill:#88AA7A;stroke:#88AA7A;stroke-width:1.51;}
	.st52{fill:#55848F;stroke:#55848F;stroke-width:1.51;}
	.st53{fill:#44758B;stroke:#44758B;stroke-width:1.51;}
	.st54{fill:#669690;stroke:#669690;stroke-width:1.51;}
	.st55{fill:#E0904D;stroke:#E0904D;stroke-width:1.51;}
	.st56{fill:#CB7A4C;stroke:#CB7A4C;stroke-width:1.51;}
	.st57{fill:#DB8A4C;stroke:#DB8A4C;stroke-width:1.51;}
	.st58{fill:#E48543;stroke:#E48543;stroke-width:1.51;}
	.st59{fill:#4B798C;stroke:#4B798C;stroke-width:1.51;}
	.st60{fill:#D4402A;stroke:#D4402A;stroke-width:1.51;}
	.st61{fill:#D5432A;stroke:#D5432A;stroke-width:1.51;}
	.st62{fill:#E27E40;stroke:#E27E40;stroke-width:1.51;}
	.st63{fill:#AA5D53;stroke:#AA5D53;stroke-width:1.51;}
	.st64{fill:#B8654C;stroke:#B8654C;stroke-width:1.51;}
	.st65{fill:#99B27A;stroke:#99B27A;stroke-width:1.51;}
	.st66{fill:#97B27A;stroke:#97B27A;stroke-width:1.51;}
	.st67{fill:#B19168;stroke:#B19168;stroke-width:1.51;}
	.st68{fill:#CE7C4B;stroke:#CE7C4B;stroke-width:1.51;}
	.st69{fill:#AC6455;stroke:#AC6455;stroke-width:1.51;}
	.st70{fill:#B18965;stroke:#B18965;stroke-width:1.51;}
	.st71{fill:#73A188;stroke:#73A188;stroke-width:1.51;}
	.st72{fill:#4C7C8D;stroke:#4C7C8D;stroke-width:1.51;}
	.st73{fill:#366987;stroke:#366987;stroke-width:1.51;}
	.st74{fill:#BE6B4D;stroke:#BE6B4D;stroke-width:1.51;}
	.st75{fill:#E3934C;stroke:#E3934C;stroke-width:1.51;}
	.st76{fill:#D23927;stroke:#D23927;stroke-width:1.51;}
	.st77{fill:#DB5F34;stroke:#DB5F34;stroke-width:1.51;}
	.st78{fill:#B5624D;stroke:#B5624D;stroke-width:1.51;}
	.st79{fill:#B3A670;stroke:#B3A670;stroke-width:1.51;}
	.st80{fill:#67978F;stroke:#67978F;stroke-width:1.51;}
	.st81{fill:#E0713C;stroke:#E0713C;stroke-width:1.51;}
	.st82{fill:#AA5F53;stroke:#AA5F53;stroke-width:1.51;}
	.st83{fill:#CB7B4B;stroke:#CB7B4B;stroke-width:1.51;}
</style>
<g>
	<g>
		<defs>
			<rect id="SVGID_1_" x="0.15" y="0.5" width="1000.2" height="533"/>
		</defs>
		<clipPath id="SVGID_2_">
			<use xlink:href="#SVGID_1_"  style="overflow:visible;"/>
		</clipPath>
		<g class="st0">
			<g>
				<defs>
					<rect id="SVGID_3_" x="-156.67" y="-157.43" width="1637.58" height="1572.68"/>
				</defs>
				<clipPath id="SVGID_4_">
					<use xlink:href="#SVGID_3_"  style="overflow:visible;"/>
				</clipPath>
				<g class="st1">
					<path class="st2" d="M679.91,370.35l221.08,58.01L715.5,511.23L679.91,370.35z"/>
					<path class="st3" d="M679.91,370.35l152.18-256.91l68.9,314.92L679.91,370.35z"/>
					<path class="st4" d="M900.99,428.37l25.74,272.56L715.49,511.24L900.99,428.37z"/>
					<path class="st5" d="M832.09,113.44l251.36,214.55L900.99,428.37L832.09,113.44z"/>
					<path class="st6" d="M900.99,428.37L1083.46,328l55.27,310.32L900.99,428.37z"/>
					<path class="st7" d="M679.91,370.35l15.14-319.53l137.04,62.62L679.91,370.35z"/>
					<path class="st8" d="M900.99,428.37l237.74,209.95l-211.99,62.62L900.99,428.37z"/>
					<path class="st9" d="M926.73,700.93l62.84,87.48l-303.6,100.37L926.73,700.93z"/>
					<path class="st10" d="M715.49,511.24l-315.72-115.1l280.14-25.78L715.49,511.24z"/>
					<path class="st11" d="M926.73,700.93L685.97,888.78l29.53-377.54L926.73,700.93z"/>
					<path class="st12" d="M679.91,370.35l-280.14,25.78l15.9-224.68L679.91,370.35z"/>
					<path class="st13" d="M926.73,700.93l211.99-62.62l-149.15,150.1L926.73,700.93z"/>
					<path class="st14" d="M715.49,511.24l-29.53,377.54l-168.08,0.92L715.49,511.24z"/>
					<path class="st15" d="M679.91,370.35l-264.24-198.9L695.05,50.83L679.91,370.35z"/>
					<path class="st16" d="M715.49,511.24l-322.53,94.85l6.81-209.95L715.49,511.24z"/>
					<path class="st17" d="M832.09,113.44l340.7,34.99l-89.34,179.56L832.09,113.44z"/>
					<path class="st18" d="M695.05,50.83l-57.54-208.11l289.98-66.3L695.05,50.83z"/>
					<path class="st19" d="M1083.45,328l89.34-179.56l81.01,219.16L1083.45,328z"/>
					<path class="st20" d="M1083.45,328l170.35,39.6l-115.08,270.72L1083.45,328z"/>
					<path class="st15" d="M399.77,396.14l-75.71,128.92L208.22,341.81L399.77,396.14z"/>
					<path class="st21" d="M392.96,606.09l-68.9-81.03l75.71-128.92L392.96,606.09z"/>
					<path class="st22" d="M392.96,606.09L517.88,889.7L233.2,879.57L392.96,606.09z"/>
					<path class="st23" d="M715.49,511.24L517.88,889.7L392.96,606.09L715.49,511.24z"/>
					<path class="st24" d="M415.67,171.46l1.51-279.01L695.05,50.83L415.67,171.46z"/>
					<path class="st25" d="M832.09,113.44L695.05,50.83l232.44-274.41L832.09,113.44z"/>
					<path class="st26" d="M832.09,113.44l95.4-337.02l262.72,127.99L832.09,113.44z"/>
					<path class="st27" d="M1138.72,638.32l0.76,265.2l-149.91-115.1L1138.72,638.32z"/>
					<path class="st28" d="M1253.81,367.59l68.14,139.97l-183.22,130.76L1253.81,367.59z"/>
					<path class="st29" d="M989.57,788.41l149.91,115.1l-233.95,179.56L989.57,788.41z"/>
					<path class="st30" d="M685.97,888.78l303.61-100.37l-84.04,294.66L685.97,888.78z"/>
					<path class="st31" d="M1138.72,638.32l183.22-130.76l21.2,397.8L1138.72,638.32z"/>
					<path class="st32" d="M1172.79,148.44l17.41-244.02L1356.01-8.1L1172.79,148.44z"/>
					<path class="st33" d="M695.05,50.83L417.19-107.55l220.32-49.72L695.05,50.83z"/>
					<path class="st34" d="M399.77,396.14l-191.55-54.33l207.45-170.35L399.77,396.14z"/>
					<path class="st35" d="M637.51-157.28l-220.32,49.72L277.12-209.77L637.51-157.28z"/>
					<path class="st36" d="M415.67,171.46L329.36,3.87l87.83-111.42L415.67,171.46z"/>
					<path class="st30" d="M685.97,888.78l219.57,194.29l-282.41,26.7L685.97,888.78z"/>
					<path class="st32" d="M1253.81,367.59l-81.01-219.16L1356.02-8.11L1253.81,367.59z"/>
					<path class="st37" d="M832.09,113.44l358.12-209.03l-17.41,244.02L832.09,113.44z"/>
					<path class="st38" d="M415.67,171.46L208.22,341.81L329.36,3.87L415.67,171.46z"/>
					<path class="st39" d="M392.96,606.09L233.21,879.57l90.85-354.52L392.96,606.09z"/>
					<path class="st40" d="M685.97,888.78l-62.84,221L517.88,889.7L685.97,888.78z"/>
					<path class="st41" d="M517.88,889.7l105.24,220.08l-203.67,2.76L517.88,889.7z"/>
					<path class="st42" d="M1253.81,367.59l102.21-375.7l182.47,373.86L1253.81,367.59z"/>
					<path class="st43" d="M1139.48,903.51l-79.5,251.39l-154.45-71.82L1139.48,903.51z"/>
					<path class="st44" d="M1321.95,507.56l149.91-8.29l78.74,275.33L1321.95,507.56z"/>
					<path class="st45" d="M905.53,1083.07l154.45,71.82l-218.05,189.69L905.53,1083.07z"/>
					<path class="st46" d="M324.06,525.05l-90.85,354.52L-8.32,659.49L324.06,525.05z"/>
					<path class="st47" d="M1253.81,367.59l218.05,131.68l-149.91,8.29L1253.81,367.59z"/>
					<path class="st48" d="M1139.48,903.51l-0.76-265.2l204.42,267.04L1139.48,903.51z"/>
					<path class="st30" d="M905.53,1083.07l-227.14,229.29l-55.27-202.58L905.53,1083.07z"/>
					<path class="st49" d="M517.88,889.7l-98.43,222.84L233.21,879.57L517.88,889.7z"/>
					<path class="st50" d="M1139.48,903.51l203.67,1.84l-2.27,174.96L1139.48,903.51z"/>
					<path class="st51" d="M324.06,525.05L87.84,397.06l120.38-55.25L324.06,525.05z"/>
					<path class="st52" d="M208.22,341.81L87.84,397.06L55.28,102.39L208.22,341.81z"/>
					<path class="st53" d="M208.22,341.81L55.28,102.39L329.36,3.87L208.22,341.81z"/>
					<path class="st54" d="M329.36,3.87l-52.24-213.63l140.07,102.21L329.36,3.87z"/>
					<path class="st15" d="M637.51-157.28l-360.39-52.49l650.37-13.81L637.51-157.28z"/>
					<path class="st55" d="M1471.86,499.27l66.63-133.52l12.11,408.85L1471.86,499.27z"/>
					<path class="st56" d="M1253.81,367.59l284.68-1.84l-66.63,133.52L1253.81,367.59z"/>
					<path class="st57" d="M623.12,1109.78l55.27,202.58l-258.94-199.82L623.12,1109.78z"/>
					<path class="st58" d="M905.53,1083.07l-63.6,261.51l-163.54-32.23L905.53,1083.07z"/>
					<path class="st59" d="M329.36,3.87L55.28,102.39l221.84-312.16L329.36,3.87z"/>
					<path class="st60" d="M1059.98,1154.9l280.89-74.59l-155.97,360.04L1059.98,1154.9z"/>
					<path class="st61" d="M1139.48,903.51l201.39,176.8l-280.89,74.59L1139.48,903.51z"/>
					<path class="st62" d="M1321.95,507.56L1550.6,774.6l-207.45,130.76L1321.95,507.56z"/>
					<path class="st32" d="M1356.02-8.11l52.24-176.8l208.21,72.75L1356.02-8.11z"/>
					<path class="st32" d="M1190.21-95.58l218.05-89.32L1356.02-8.1L1190.21-95.58z"/>
					<path class="st63" d="M927.49-223.58l480.77,38.67l-218.05,89.32L927.49-223.58z"/>
					<path class="st50" d="M1343.15,905.35L1550.6,774.6l-72.68,435.55L1343.15,905.35z"/>
					<path class="st64" d="M419.46,1112.54l-241.52,49.72l55.27-282.69L419.46,1112.54z"/>
					<path class="st65" d="M324.06,525.05L-8.32,659.49l96.15-262.44L324.06,525.05z"/>
					<path class="st66" d="M87.84,397.06L-8.32,659.49l-98.43-139.04L87.84,397.06z"/>
					<path class="st67" d="M233.21,879.57L23.48,800.38l-31.8-140.89L233.21,879.57z"/>
					<path class="st32" d="M1356.02-8.11l272.56,163.91l-90.1,209.95L1356.02-8.11z"/>
					<path class="st68" d="M1538.48,365.75l90.1-209.95l-77.98,618.8L1538.48,365.75z"/>
					<path class="st69" d="M233.21,879.57l-55.27,282.69L23.48,800.38L233.21,879.57z"/>
					<path class="st47" d="M678.39,1312.36l-286.19,93.92l27.26-293.74L678.39,1312.36z"/>
					<path class="st32" d="M177.94,1162.27l-1.51,178.64L40.9,1293.94L177.94,1162.27z"/>
					<path class="st70" d="M23.48,800.38l-253.64,158.38L-8.32,659.49L23.48,800.38z"/>
					<path class="st71" d="M87.84,397.06l-194.58,123.39L-224.1,268.14L87.84,397.06z"/>
					<path class="st72" d="M87.84,397.06L-224.1,268.14L55.28,102.39L87.84,397.06z"/>
					<path class="st73" d="M55.28,102.39L6.83-156.36l270.29-53.41L55.28,102.39z"/>
					<path class="st74" d="M419.46,1112.54l-27.26,293.74l-214.27-244.02L419.46,1112.54z"/>
					<path class="st75" d="M841.93,1344.59l-449.73,61.7l286.19-93.92L841.93,1344.59z"/>
					<path class="st32" d="M1356.02-8.11l260.45-104.05l12.11,267.96L1356.02-8.11z"/>
					<path class="st76" d="M1343.15,905.35l134.77,304.79l-137.04-129.84L1343.15,905.35z"/>
					<path class="st77" d="M1059.98,1154.9l124.93,285.46l-342.98-95.77L1059.98,1154.9z"/>
					<path class="st58" d="M841.93,1344.59l342.98,95.77l-792.71-34.07L841.93,1344.59z"/>
					<path class="st73" d="M55.28,102.39L-106.74,27.8L6.83-156.36L55.28,102.39z"/>
					<path class="st76" d="M1340.88,1080.31l137.04,129.84l-65.12,170.35L1340.88,1080.31z"/>
					<path class="st32" d="M-43.9,1235.01l221.84-72.75L40.9,1293.94L-43.9,1235.01z"/>
					<path class="st78" d="M392.2,1406.28l-215.78-65.38l1.51-178.64L392.2,1406.28z"/>
					<path class="st76" d="M1340.88,1080.31l71.92,300.19l-227.89,59.85L1340.88,1080.31z"/>
					<path class="st73" d="M55.28,102.39L-224.1,268.14L-106.75,27.8L55.28,102.39z"/>
					<path class="st32" d="M23.48,800.38l154.45,361.88l-221.84,72.75L23.48,800.38z"/>
					<path class="st32" d="M-177.15,1138.32L23.48,800.38l-67.38,434.63L-177.15,1138.32z"/>
					<path class="st79" d="M-106.74,520.45l98.43,139.04l-221.84,299.27L-106.74,520.45z"/>
					<path class="st80" d="M277.12-209.77l-434.59-9.21l1084.96-4.6L277.12-209.77z"/>
					<path class="st73" d="M6.83-156.36l-164.3-62.62l434.59,9.21L6.83-156.36z"/>
					<path class="st73" d="M-106.74,27.81l-50.73-246.78l164.3,62.62L-106.74,27.81z"/>
					<path class="st73" d="M-224.1,268.14l66.63-487.12l50.73,246.78L-224.1,268.14z"/>
					<path class="st76" d="M1412.8,1380.5l68.14,35.91l-296.03,23.94L1412.8,1380.5z"/>
					<path class="st76" d="M1477.92,1210.15l3.03,206.27l-68.15-35.92L1477.92,1210.15z"/>
					<path class="st76" d="M1550.6,774.6l-69.66,641.82l-3.03-206.27L1550.6,774.6z"/>
					<path class="st81" d="M1628.58,155.8l-147.64,1260.61l69.66-641.82L1628.58,155.8z"/>
					<path class="st12" d="M-106.74,520.45l-123.41,438.31l6.06-690.62L-106.74,520.45z"/>
					<path class="st82" d="M23.48,800.38l-200.64,337.94l-53-179.56L23.48,800.38z"/>
					<path class="st32" d="M-177.15,1138.32l-72.68,299.27l19.69-478.83L-177.15,1138.32z"/>
					<path class="st32" d="M-43.9,1235.01l-205.94,202.58l72.68-299.27L-43.9,1235.01z"/>
					<path class="st32" d="M40.9,1293.94l-290.73,143.65l205.94-202.58L40.9,1293.94z"/>
					<path class="st32" d="M176.42,1340.91l-426.26,96.69L40.9,1293.94L176.42,1340.91z"/>
					<path class="st32" d="M392.2,1406.28l-642.04,31.31l426.26-96.69L392.2,1406.28z"/>
					<path class="st83" d="M1184.91,1440.35l-1434.75-2.76l642.04-31.31L1184.91,1440.35z"/>
					<path class="st37" d="M-230.15,958.76l-19.69,478.83l25.74-1169.45L-230.15,958.76z"/>
				</g>
			</g>
		</g>
	</g>
</g>
</svg>
