<svg id="Ebene_1" data-name="Ebene 1" xmlns="http://www.w3.org/2000/svg" viewBox="0 0 414.57 437.86"><defs><style>.cls-1,.cls-3{fill:none;stroke:#334d5c;stroke-miterlimit:10;}.cls-1{stroke-width:13px;}.cls-2{fill:#334d5c;}.cls-3{stroke-width:10px;}.cls-4{fill:#ec8c1d;}</style></defs><title>questionaire</title><polygon class="cls-1" points="20.86 6.5 17.55 7.63 14.24 9.3 11.47 11.53 9.27 14.33 8.16 17.13 7.04 20.48 6.5 24.38 6.5 413.46 7.04 416.81 8.16 420.18 9.27 422.96 11.47 425.76 14.24 428.01 17.55 429.69 20.86 430.79 24.17 431.36 331.41 431.36 334.75 430.79 338.06 429.69 341.37 428.01 344.14 425.76 346.34 422.96 347.45 420.18 348.54 416.81 349.11 413.46 349.11 83.65 272.85 6.5 20.86 6.5"/><polygon class="cls-2" points="272.85 6.5 272.85 64.47 272.85 68.07 273.85 71.64 275.33 75.22 277.31 77.58 279.8 79.98 282.29 81.77 285.26 82.94 288.73 83.55 349.11 83.65 272.85 6.5"/><line class="cls-3" x1="186.79" y1="303.45" x2="63.77" y2="303.45"/><line class="cls-3" x1="296.15" y1="262.44" x2="63.77" y2="262.44"/><line class="cls-3" x1="296.15" y1="207.75" x2="63.77" y2="207.75"/><line class="cls-3" x1="296.15" y1="166.74" x2="63.77" y2="166.74"/><path class="cls-4" d="M411.65,192.49a10,10,0,0,0,0-14.14l-20.41-20.42a10,10,0,0,0-14.15,0l-80.78,80.79a10,10,0,0,1-14.14,0l-33.78-33.78a10,10,0,0,0-14.15,0l-20.41,20.41a10,10,0,0,0,0,14.14l67.85,67.85c3.89,3.89,7.29,6.85,7.57,6.57s.61-.39.74-.25,3.43-2.94,7.32-6.83Z"/></svg>